<svg xmlns="http://www.w3.org/2000/svg" xmlns:xlink="http://www.w3.org/1999/xlink" viewBox="0 0 4260.58 231.17"><defs><style>.cls-1{fill:none;}.cls-2{opacity:0.3;}.cls-3{clip-path:url(#clip-path);}.cls-4{fill:url(#linear-gradient);}.cls-5{clip-path:url(#clip-path-2);}.cls-6{fill:url(#linear-gradient-2);}.cls-7{clip-path:url(#clip-path-3);}.cls-8{fill:url(#linear-gradient-3);}</style><clipPath id="clip-path" transform="translate(1570.33 -69.86)"><rect id="SVGID" class="cls-1" width="1170" height="300"/></clipPath><linearGradient id="linear-gradient" x1="621.19" y1="-80.81" x2="586.75" y2="312.85" gradientTransform="matrix(1, 0, 0, -1, 0, 302)" gradientUnits="userSpaceOnUse"><stop offset="0" stop-color="#fff" stop-opacity="0"/><stop offset="0.09" stop-color="#f0fdfa" stop-opacity="0.09"/><stop offset="0.28" stop-color="#c8f9ed" stop-opacity="0.28"/><stop offset="0.53" stop-color="#88f1d9" stop-opacity="0.53"/><stop offset="0.84" stop-color="#30e7bd" stop-opacity="0.84"/><stop offset="1" stop-color="#00e1ad"/></linearGradient><clipPath id="clip-path-2" transform="translate(1570.33 -69.86)"><rect id="SVGID-2" data-name="SVGID" class="cls-1" x="1605.16" y="-435" width="300" height="1170" transform="translate(1603.24 1905) rotate(-89.94)"/></clipPath><linearGradient id="linear-gradient-2" x1="-173.43" y1="-289.24" x2="-207.87" y2="104.42" gradientTransform="translate(1545.61 93.34) rotate(-179.94)" xlink:href="#linear-gradient"/><clipPath id="clip-path-3" transform="translate(1570.33 -69.86)"><rect id="SVGID-3" data-name="SVGID" class="cls-1" x="-735.16" y="-435" width="300" height="1170" transform="translate(-734.52 -435.33) rotate(-89.94)"/></clipPath><linearGradient id="linear-gradient-3" x1="2166.9" y1="-291.81" x2="2132.46" y2="101.85" gradientTransform="translate(1545.61 93.34) rotate(-179.94)" xlink:href="#linear-gradient"/></defs><title>019_dlbox_bg-trimed</title><g id="Layer_1" data-name="Layer 1" class="cls-2"><g class="cls-3"><path class="cls-4" d="M-350,71.1V300l1920-.2v-90c-13.4-6.6-186.3-129.7-401.7-139.3-163.5,6.3-247.5,95.4-366.1,95.4-2,0-4.1,0-6.1-.1C693,163.2,597.6,70,482.6,70a207.88,207.88,0,0,0-65.3,10.5c-174,60.6-176,128.3-373.7,139.2C-155.3,219.7-350,71.1-350,71.1" transform="translate(1570.33 -69.86)"/></g><g class="cls-5"><path class="cls-6" d="M2690.25,72.13s-194.86,148.38-393.76,148.16c-197.69-11.11-199.62-78.82-373.55-139.61a208.22,208.22,0,0,0-65.29-10.57c-115-.12-210.5,93-313.6,95.46-2,.1-4.1.09-6.1.09-118.6-.13-202.51-89.32-366-95.8C956.54,79.22,783.51,202.13,770.1,208.72l-.1,90L2690,301l.06-53.2.19-175.7" transform="translate(1570.33 -69.86)"/></g><g class="cls-7"><path class="cls-8" d="M349.92,72.13S155.06,220.51-43.84,220.29c-197.69-11.11-199.61-78.82-373.55-139.61a208.22,208.22,0,0,0-65.29-10.57c-115-.12-210.5,93-313.6,95.46-2,.1-4.1.09-6.1.09-118.6-.13-202.5-89.32-366-95.8-215.41,9.36-388.44,132.27-401.85,138.86l-.1,90,1920,2.31.06-53.2.19-175.7" transform="translate(1570.33 -69.86)"/></g></g></svg>